<svg xmlns="http://www.w3.org/2000/svg" viewBox="0 0 1416.34 157.35"><title>arterion_logo</title><path d="M105,47.32,30.45,155.15H0L105,3,210,155.15H179.55"/><path d="M343.1,107.74l54.95,47.41H363.4L312,111.05h-53.9v44.1h-28V5.21h84c46.55,0,84,23.59,84,52.92C398.05,81.06,375.3,100.46,343.1,107.74ZM258.05,93.41h56c30.8,0,56-15.88,56-35.28s-25.2-35.28-56-35.28h-56Z"/><path d="M566.6,22.85h-56v132.3h-28V22.85h-56l-14-17.64h168Z"/><path d="M887.75,107.74l55,47.41H908.05l-51.46-44.1h-53.9v44.1h-28V5.21h84c46.55,0,84,23.59,84,52.92C942.7,81.06,920,100.46,887.75,107.74ZM802.69,93.41h56c30.8,0,56-15.88,56-35.28s-25.2-35.28-56-35.28h-56Z"/><path d="M973.24,155.15V5.21h28V155.15Z"/><path d="M1221.67,80.18c0,42.55-43.37,77.17-96.69,77.17s-96.69-34.62-96.69-77.17S1071.66,3,1125,3,1221.67,37.62,1221.67,80.18Zm-22.1,0c0-32.86-33.43-59.54-74.59-59.54s-74.59,26.68-74.59,59.54,33.43,59.53,74.59,59.53S1199.57,113,1199.57,80.18Z"/><path d="M1416.34,2.21V154.35l-140-105.62V152.15h-28V0l140,105.62V2.21Z"/><path d="M746.63,88.84h-147V71.21h147Z"/><path d="M746.63,154.84h-147V137.21h147Z"/><polygon points="613.67 5.21 599.67 22.84 746.63 22.84 746.63 5.21 613.67 5.21"/></svg>